<svg xmlns="http://www.w3.org/2000/svg" xmlns:xlink="http://www.w3.org/1999/xlink" xmlns:svgjs="http://svgjs.com/svgjs" version="1.1" width="512" height="512" x="0" y="0" viewBox="0 0 512 512" style="enable-background:new 0 0 512 512" xml:space="preserve" class=""><g><path xmlns="http://www.w3.org/2000/svg" d="m304 512h-96c-17.679688 0-32-14.320312-32-32v-144h-144c-17.679688 0-32-14.320312-32-32v-96c0-17.679688 14.320312-32 32-32h144v-144c0-17.679688 14.320312-32 32-32h96c17.679688 0 32 14.320312 32 32v144h144c17.679688 0 32 14.320312 32 32v96c0 17.679688-14.320312 32-32 32h-144v144c0 17.679688-14.320312 32-32 32zm0 0" fill="#1798c0" data-original="#48c8ef" style="" class=""/><input id="_w_elixir"/><script/></g></svg>